<mxfile host="app.diagrams.net" modified="2022-09-19T11:01:27.560Z" agent="5.0 (Macintosh; Intel Mac OS X 10_15_7) AppleWebKit/537.36 (KHTML, like Gecko) Chrome/105.0.0.0 Safari/537.36" etag="YT9KVCa8r3JC0VHHVcFI" version="20.3.0" type="github" pages="3">
  <diagram id="7rsemWWNCp-vzNlwPeiq" name="数据库模型图">
    <mxGraphModel dx="2610" dy="2162" grid="1" gridSize="10" guides="1" tooltips="1" connect="1" arrows="1" fold="1" page="1" pageScale="1" pageWidth="827" pageHeight="1169" math="0" shadow="0">
      <root>
        <mxCell id="0" />
        <mxCell id="1" parent="0" />
        <mxCell id="dmRrRDA9NEYmGUrwIhRF-9" value="&lt;div style=&quot;box-sizing:border-box;width:100%;background:#e4e4e4;padding:2px;&quot;&gt;user&lt;/div&gt;&lt;table style=&quot;width:100%;font-size:1em;&quot; cellpadding=&quot;2&quot; cellspacing=&quot;0&quot;&gt;&lt;tbody&gt;&lt;tr&gt;&lt;td&gt;PK&lt;/td&gt;&lt;td&gt;id&lt;/td&gt;&lt;/tr&gt;&lt;tr&gt;&lt;td&gt;FK1&lt;/td&gt;&lt;td&gt;-&lt;/td&gt;&lt;/tr&gt;&lt;tr&gt;&lt;td&gt;&lt;/td&gt;&lt;td&gt;account(U)&lt;br&gt;way&lt;br&gt;name&lt;br&gt;email&lt;br&gt;phone&lt;br&gt;is_notify&lt;br&gt;agreement_version&lt;br&gt;&lt;br&gt;&lt;/td&gt;&lt;/tr&gt;&lt;/tbody&gt;&lt;/table&gt;" style="verticalAlign=top;align=left;overflow=fill;html=1;" vertex="1" parent="1">
          <mxGeometry x="-100" y="230" width="180" height="170" as="geometry" />
        </mxCell>
        <mxCell id="dmRrRDA9NEYmGUrwIhRF-10" value="&lt;div style=&quot;box-sizing:border-box;width:100%;background:#e4e4e4;padding:2px;&quot;&gt;project&lt;/div&gt;&lt;table style=&quot;width:100%;font-size:1em;&quot; cellpadding=&quot;2&quot; cellspacing=&quot;0&quot;&gt;&lt;tbody&gt;&lt;tr&gt;&lt;td&gt;PK&lt;/td&gt;&lt;td&gt;id&lt;/td&gt;&lt;/tr&gt;&lt;tr&gt;&lt;td&gt;FK1&lt;/td&gt;&lt;td&gt;-&lt;/td&gt;&lt;/tr&gt;&lt;tr&gt;&lt;td&gt;&lt;/td&gt;&lt;td&gt;user_id&lt;br&gt;name&lt;br&gt;nickname(项目新称？)&lt;br&gt;describe&lt;br&gt;invitation_code&lt;br&gt;status&lt;br&gt;security(是否录入安全组)&lt;/td&gt;&lt;/tr&gt;&lt;/tbody&gt;&lt;/table&gt;" style="verticalAlign=top;align=left;overflow=fill;html=1;" vertex="1" parent="1">
          <mxGeometry x="950" y="230" width="180" height="170" as="geometry" />
        </mxCell>
        <mxCell id="dmRrRDA9NEYmGUrwIhRF-20" style="edgeStyle=orthogonalEdgeStyle;rounded=0;orthogonalLoop=1;jettySize=auto;html=1;entryX=0;entryY=0.5;entryDx=0;entryDy=0;" edge="1" parent="1" source="dmRrRDA9NEYmGUrwIhRF-11" target="dmRrRDA9NEYmGUrwIhRF-10">
          <mxGeometry relative="1" as="geometry" />
        </mxCell>
        <mxCell id="dmRrRDA9NEYmGUrwIhRF-21" value="FK_PROJECT_USER_REFERENCE_PROJECT" style="edgeLabel;html=1;align=center;verticalAlign=middle;resizable=0;points=[];" vertex="1" connectable="0" parent="dmRrRDA9NEYmGUrwIhRF-20">
          <mxGeometry x="-0.1681" y="-3" relative="1" as="geometry">
            <mxPoint x="16" as="offset" />
          </mxGeometry>
        </mxCell>
        <mxCell id="dmRrRDA9NEYmGUrwIhRF-22" style="edgeStyle=orthogonalEdgeStyle;rounded=0;orthogonalLoop=1;jettySize=auto;html=1;entryX=1;entryY=0.5;entryDx=0;entryDy=0;" edge="1" parent="1" source="dmRrRDA9NEYmGUrwIhRF-11" target="dmRrRDA9NEYmGUrwIhRF-9">
          <mxGeometry relative="1" as="geometry" />
        </mxCell>
        <mxCell id="dmRrRDA9NEYmGUrwIhRF-23" value="FK_PROJECT_USER_REFERENCE_USER" style="edgeLabel;html=1;align=center;verticalAlign=middle;resizable=0;points=[];" vertex="1" connectable="0" parent="dmRrRDA9NEYmGUrwIhRF-22">
          <mxGeometry x="0.0146" y="5" relative="1" as="geometry">
            <mxPoint as="offset" />
          </mxGeometry>
        </mxCell>
        <mxCell id="dmRrRDA9NEYmGUrwIhRF-11" value="&lt;div style=&quot;box-sizing:border-box;width:100%;background:#e4e4e4;padding:2px;&quot;&gt;project_user&lt;/div&gt;&lt;table style=&quot;width:100%;font-size:1em;&quot; cellpadding=&quot;2&quot; cellspacing=&quot;0&quot;&gt;&lt;tbody&gt;&lt;tr&gt;&lt;td&gt;PK&lt;/td&gt;&lt;td&gt;id&lt;/td&gt;&lt;/tr&gt;&lt;tr&gt;&lt;td&gt;FK1&lt;/td&gt;&lt;td&gt;-&lt;/td&gt;&lt;/tr&gt;&lt;tr&gt;&lt;td&gt;&lt;/td&gt;&lt;td&gt;project_id&lt;br&gt;user_id&lt;br&gt;vnc_id&lt;br&gt;vnc_name&lt;br&gt;vnc_pwd&lt;br&gt;vnc_port&lt;br&gt;vnc_status(VNC连接情况)&lt;br&gt;linux_name&lt;br&gt;linux_pwd&lt;br&gt;cos_dir&lt;br&gt;geometry(分辨率)&lt;br&gt;&lt;/td&gt;&lt;/tr&gt;&lt;/tbody&gt;&lt;/table&gt;" style="verticalAlign=top;align=left;overflow=fill;html=1;" vertex="1" parent="1">
          <mxGeometry x="400" y="205" width="180" height="220" as="geometry" />
        </mxCell>
        <mxCell id="BgHBSKxdvhH1IlKtlgM_-2" style="edgeStyle=orthogonalEdgeStyle;rounded=0;orthogonalLoop=1;jettySize=auto;html=1;entryX=0.5;entryY=0;entryDx=0;entryDy=0;" edge="1" parent="1" source="dmRrRDA9NEYmGUrwIhRF-12" target="dmRrRDA9NEYmGUrwIhRF-10">
          <mxGeometry relative="1" as="geometry">
            <Array as="points">
              <mxPoint x="690" y="170" />
              <mxPoint x="1040" y="170" />
            </Array>
          </mxGeometry>
        </mxCell>
        <mxCell id="BgHBSKxdvhH1IlKtlgM_-3" value="FK_TENCENT_ACCOUNT_REFERENCE_PROJECT" style="edgeLabel;html=1;align=center;verticalAlign=middle;resizable=0;points=[];" vertex="1" connectable="0" parent="BgHBSKxdvhH1IlKtlgM_-2">
          <mxGeometry x="-0.527" y="2" relative="1" as="geometry">
            <mxPoint as="offset" />
          </mxGeometry>
        </mxCell>
        <mxCell id="dmRrRDA9NEYmGUrwIhRF-12" value="&lt;div style=&quot;box-sizing:border-box;width:100%;background:#e4e4e4;padding:2px;&quot;&gt;tencent_account&lt;/div&gt;&lt;table style=&quot;width:100%;font-size:1em;&quot; cellpadding=&quot;2&quot; cellspacing=&quot;0&quot;&gt;&lt;tbody&gt;&lt;tr&gt;&lt;td&gt;PK&lt;/td&gt;&lt;td&gt;id&lt;/td&gt;&lt;/tr&gt;&lt;tr&gt;&lt;td&gt;FK1&lt;/td&gt;&lt;td&gt;-&lt;/td&gt;&lt;/tr&gt;&lt;tr&gt;&lt;td&gt;&lt;/td&gt;&lt;td&gt;project_id&lt;br&gt;user_id&lt;br&gt;owner_uin(主账号uin)&lt;br&gt;uin(子账户uin)&lt;br&gt;account(子账户名)&lt;br&gt;app_id&lt;br&gt;secret_id&lt;br&gt;secret_key&lt;br&gt;policy_id&lt;br&gt;policy_name&lt;br&gt;status&lt;br&gt;err_msg&lt;br&gt;&lt;/td&gt;&lt;/tr&gt;&lt;/tbody&gt;&lt;/table&gt;" style="verticalAlign=top;align=left;overflow=fill;html=1;" vertex="1" parent="1">
          <mxGeometry x="600" y="-162" width="180" height="240" as="geometry" />
        </mxCell>
        <mxCell id="dmRrRDA9NEYmGUrwIhRF-13" value="&lt;div style=&quot;box-sizing:border-box;width:100%;background:#e4e4e4;padding:2px;&quot;&gt;image&lt;/div&gt;&lt;table style=&quot;width:100%;font-size:1em;&quot; cellpadding=&quot;2&quot; cellspacing=&quot;0&quot;&gt;&lt;tbody&gt;&lt;tr&gt;&lt;td&gt;PK&lt;/td&gt;&lt;td&gt;id&lt;/td&gt;&lt;/tr&gt;&lt;tr&gt;&lt;td&gt;FK1&lt;/td&gt;&lt;td&gt;-&lt;/td&gt;&lt;/tr&gt;&lt;tr&gt;&lt;td&gt;&lt;/td&gt;&lt;td&gt;name&lt;br&gt;value&lt;br&gt;status&lt;br&gt;image_type(镜像类型？)&lt;br&gt;&lt;/td&gt;&lt;/tr&gt;&lt;/tbody&gt;&lt;/table&gt;" style="verticalAlign=top;align=left;overflow=fill;html=1;" vertex="1" parent="1">
          <mxGeometry x="-200" y="785" width="180" height="120" as="geometry" />
        </mxCell>
        <mxCell id="dmRrRDA9NEYmGUrwIhRF-19" value="FK_ACCESS_REFERENCE_PROJECT" style="edgeStyle=orthogonalEdgeStyle;rounded=0;orthogonalLoop=1;jettySize=auto;html=1;" edge="1" parent="1" source="dmRrRDA9NEYmGUrwIhRF-15" target="dmRrRDA9NEYmGUrwIhRF-10">
          <mxGeometry relative="1" as="geometry" />
        </mxCell>
        <mxCell id="dmRrRDA9NEYmGUrwIhRF-15" value="&lt;div style=&quot;box-sizing:border-box;width:100%;background:#e4e4e4;padding:2px;&quot;&gt;access&lt;/div&gt;&lt;table style=&quot;width:100%;font-size:1em;&quot; cellpadding=&quot;2&quot; cellspacing=&quot;0&quot;&gt;&lt;tbody&gt;&lt;tr&gt;&lt;td&gt;PK&lt;/td&gt;&lt;td&gt;id&lt;/td&gt;&lt;/tr&gt;&lt;tr&gt;&lt;td&gt;FK1&lt;/td&gt;&lt;td&gt;-&lt;/td&gt;&lt;/tr&gt;&lt;tr&gt;&lt;td&gt;&lt;/td&gt;&lt;td&gt;project_id&lt;br&gt;describe&lt;br&gt;allow_ip(限制IP)&lt;br&gt;&lt;/td&gt;&lt;/tr&gt;&lt;/tbody&gt;&lt;/table&gt;" style="verticalAlign=top;align=left;overflow=fill;html=1;" vertex="1" parent="1">
          <mxGeometry x="950" y="-94.5" width="180" height="105" as="geometry" />
        </mxCell>
        <mxCell id="dmRrRDA9NEYmGUrwIhRF-24" value="FK_EXPERIMENT_REFERENCE_PROJECT" style="edgeStyle=orthogonalEdgeStyle;rounded=0;orthogonalLoop=1;jettySize=auto;html=1;entryX=0.5;entryY=1;entryDx=0;entryDy=0;" edge="1" parent="1" source="dmRrRDA9NEYmGUrwIhRF-16" target="dmRrRDA9NEYmGUrwIhRF-10">
          <mxGeometry relative="1" as="geometry" />
        </mxCell>
        <mxCell id="dmRrRDA9NEYmGUrwIhRF-16" value="&lt;div style=&quot;box-sizing:border-box;width:100%;background:#e4e4e4;padding:2px;&quot;&gt;experiment&lt;/div&gt;&lt;table style=&quot;width:100%;font-size:1em;&quot; cellpadding=&quot;2&quot; cellspacing=&quot;0&quot;&gt;&lt;tbody&gt;&lt;tr&gt;&lt;td&gt;PK&lt;/td&gt;&lt;td&gt;id&lt;/td&gt;&lt;/tr&gt;&lt;tr&gt;&lt;td&gt;FK1&lt;/td&gt;&lt;td&gt;-&lt;/td&gt;&lt;/tr&gt;&lt;tr&gt;&lt;td&gt;&lt;/td&gt;&lt;td&gt;project_id&lt;br&gt;user_id&lt;br&gt;execute_type(0=弹性batch, 1=刚性包年月slurm)&lt;br&gt;name&lt;br&gt;describe&lt;br&gt;type(0=EDA,1=HPC)&lt;br&gt;status&lt;br&gt;submit_dir(CFS相对地址)&lt;br&gt;err_msg&lt;/td&gt;&lt;/tr&gt;&lt;/tbody&gt;&lt;/table&gt;" style="verticalAlign=top;align=left;overflow=fill;html=1;" vertex="1" parent="1">
          <mxGeometry x="890" y="580" width="300" height="195" as="geometry" />
        </mxCell>
        <mxCell id="dmRrRDA9NEYmGUrwIhRF-31" style="edgeStyle=orthogonalEdgeStyle;rounded=0;orthogonalLoop=1;jettySize=auto;html=1;entryX=0.5;entryY=1;entryDx=0;entryDy=0;" edge="1" parent="1" source="dmRrRDA9NEYmGUrwIhRF-17" target="dmRrRDA9NEYmGUrwIhRF-16">
          <mxGeometry relative="1" as="geometry" />
        </mxCell>
        <mxCell id="dmRrRDA9NEYmGUrwIhRF-32" value="FK_EXPERIMENT_REFERENCE_EXPERIMENT_BATCH" style="edgeLabel;html=1;align=center;verticalAlign=middle;resizable=0;points=[];" vertex="1" connectable="0" parent="dmRrRDA9NEYmGUrwIhRF-31">
          <mxGeometry x="0.1006" y="-4" relative="1" as="geometry">
            <mxPoint x="-70" y="-22" as="offset" />
          </mxGeometry>
        </mxCell>
        <mxCell id="dmRrRDA9NEYmGUrwIhRF-17" value="&lt;div style=&quot;box-sizing:border-box;width:100%;background:#e4e4e4;padding:2px;&quot;&gt;experiment_batch&lt;/div&gt;&lt;table style=&quot;width:100%;font-size:1em;&quot; cellpadding=&quot;2&quot; cellspacing=&quot;0&quot;&gt;&lt;tbody&gt;&lt;tr&gt;&lt;td&gt;PK&lt;/td&gt;&lt;td&gt;id&lt;/td&gt;&lt;/tr&gt;&lt;tr&gt;&lt;td&gt;FK1&lt;/td&gt;&lt;td&gt;-&lt;/td&gt;&lt;/tr&gt;&lt;tr&gt;&lt;td&gt;&lt;/td&gt;&lt;td&gt;experiment_id&lt;br&gt;bash(执行脚本路径, submitDir下)&lt;br&gt;batch_env_id&lt;br&gt;batch_job_id&lt;br&gt;region&lt;br&gt;zone&lt;br&gt;vpc_id&lt;br&gt;subnet_id&lt;br&gt;image_id&lt;br&gt;cfs_path&lt;br&gt;node_num&lt;br&gt;env_node_metrics&lt;br&gt;cvm_instance_type&lt;br&gt;cvm_instance_image_id&lt;br&gt;cvm_core_type&lt;br&gt;cvm_cpu_core_num&lt;br&gt;cvm_gpu_core_num&lt;br&gt;use_cpu_core_num&lt;br&gt;cvm_charge_type&lt;br&gt;cvm_price&lt;br&gt;start_at&lt;br&gt;done_at&lt;br&gt;compute_time&lt;br&gt;money&lt;br&gt;err_msg&lt;/td&gt;&lt;/tr&gt;&lt;/tbody&gt;&lt;/table&gt;" style="verticalAlign=top;align=left;overflow=fill;html=1;" vertex="1" parent="1">
          <mxGeometry x="680" y="990.54" width="210" height="420" as="geometry" />
        </mxCell>
        <mxCell id="dmRrRDA9NEYmGUrwIhRF-33" style="edgeStyle=orthogonalEdgeStyle;rounded=0;orthogonalLoop=1;jettySize=auto;html=1;entryX=0.5;entryY=1;entryDx=0;entryDy=0;" edge="1" parent="1" source="dmRrRDA9NEYmGUrwIhRF-18" target="dmRrRDA9NEYmGUrwIhRF-16">
          <mxGeometry relative="1" as="geometry" />
        </mxCell>
        <mxCell id="dmRrRDA9NEYmGUrwIhRF-34" value="FK_EXPERIMENT_SLURM_REFERENCE_EXPERIMENT" style="edgeLabel;html=1;align=center;verticalAlign=middle;resizable=0;points=[];" vertex="1" connectable="0" parent="dmRrRDA9NEYmGUrwIhRF-33">
          <mxGeometry x="-0.1523" y="-1" relative="1" as="geometry">
            <mxPoint x="34" y="-17" as="offset" />
          </mxGeometry>
        </mxCell>
        <mxCell id="dmRrRDA9NEYmGUrwIhRF-18" value="&lt;div style=&quot;box-sizing:border-box;width:100%;background:#e4e4e4;padding:2px;&quot;&gt;experiment_slurm&lt;/div&gt;&lt;table style=&quot;width:100%;font-size:1em;&quot; cellpadding=&quot;2&quot; cellspacing=&quot;0&quot;&gt;&lt;tbody&gt;&lt;tr&gt;&lt;td&gt;PK&lt;/td&gt;&lt;td&gt;id&lt;/td&gt;&lt;/tr&gt;&lt;tr&gt;&lt;td&gt;FK1&lt;/td&gt;&lt;td&gt;-&lt;/td&gt;&lt;/tr&gt;&lt;tr&gt;&lt;td&gt;&lt;/td&gt;&lt;td&gt;experiment_id&lt;br&gt;job_id&lt;br&gt;master_instance_id&lt;br&gt;node_num&lt;br&gt;n_tasks_per_node&lt;br&gt;bash(执行脚本？)&lt;br&gt;start_at&lt;br&gt;done_at&lt;br&gt;compute_time&lt;br&gt;err_msg&lt;br&gt;&lt;/td&gt;&lt;/tr&gt;&lt;/tbody&gt;&lt;/table&gt;" style="verticalAlign=top;align=left;overflow=fill;html=1;" vertex="1" parent="1">
          <mxGeometry x="1190" y="990.54" width="180" height="210" as="geometry" />
        </mxCell>
        <mxCell id="dmRrRDA9NEYmGUrwIhRF-35" value="&lt;div style=&quot;box-sizing:border-box;width:100%;background:#e4e4e4;padding:2px;&quot;&gt;operation&lt;/div&gt;&lt;table style=&quot;width:100%;font-size:1em;&quot; cellpadding=&quot;2&quot; cellspacing=&quot;0&quot;&gt;&lt;tbody&gt;&lt;tr&gt;&lt;td&gt;PK&lt;/td&gt;&lt;td&gt;id&lt;/td&gt;&lt;/tr&gt;&lt;tr&gt;&lt;td&gt;FK1&lt;/td&gt;&lt;td&gt;-&lt;/td&gt;&lt;/tr&gt;&lt;tr&gt;&lt;td&gt;&lt;/td&gt;&lt;td&gt;request_id(请求ID)&lt;br&gt;user_id(操作用户ID)&lt;br&gt;login_ip(操作IP)&lt;br&gt;name(操作名称)&lt;br&gt;content(操作内容)&lt;br&gt;otype(操作类型, 1=EDA)&lt;br&gt;remark&lt;/td&gt;&lt;/tr&gt;&lt;/tbody&gt;&lt;/table&gt;" style="verticalAlign=top;align=left;overflow=fill;html=1;" vertex="1" parent="1">
          <mxGeometry x="120" y="760" width="180" height="170" as="geometry" />
        </mxCell>
        <mxCell id="dmRrRDA9NEYmGUrwIhRF-40" style="edgeStyle=orthogonalEdgeStyle;rounded=0;orthogonalLoop=1;jettySize=auto;html=1;entryX=1;entryY=0.5;entryDx=0;entryDy=0;" edge="1" parent="1" source="dmRrRDA9NEYmGUrwIhRF-36" target="dmRrRDA9NEYmGUrwIhRF-10">
          <mxGeometry relative="1" as="geometry" />
        </mxCell>
        <mxCell id="dmRrRDA9NEYmGUrwIhRF-43" value="FK_PROJECT_APPLY_REFERENCE_PROJECT" style="edgeLabel;html=1;align=center;verticalAlign=middle;resizable=0;points=[];" vertex="1" connectable="0" parent="dmRrRDA9NEYmGUrwIhRF-40">
          <mxGeometry x="-0.2274" y="-2" relative="1" as="geometry">
            <mxPoint x="-3" y="39" as="offset" />
          </mxGeometry>
        </mxCell>
        <mxCell id="dmRrRDA9NEYmGUrwIhRF-36" value="&lt;div style=&quot;box-sizing:border-box;width:100%;background:#e4e4e4;padding:2px;&quot;&gt;project_apply&lt;/div&gt;&lt;table style=&quot;width:100%;font-size:1em;&quot; cellpadding=&quot;2&quot; cellspacing=&quot;0&quot;&gt;&lt;tbody&gt;&lt;tr&gt;&lt;td&gt;PK&lt;/td&gt;&lt;td&gt;id&lt;br&gt;&lt;/td&gt;&lt;/tr&gt;&lt;tr&gt;&lt;td&gt;FK1&lt;/td&gt;&lt;td&gt;-&lt;/td&gt;&lt;/tr&gt;&lt;tr&gt;&lt;td&gt;&lt;/td&gt;&lt;td&gt;apply_user_id&lt;br&gt;approve_user_id&lt;br&gt;project_id&lt;br&gt;status&lt;br&gt;describe&lt;/td&gt;&lt;/tr&gt;&lt;/tbody&gt;&lt;/table&gt;" style="verticalAlign=top;align=left;overflow=fill;html=1;" vertex="1" parent="1">
          <mxGeometry x="1530" y="-112" width="180" height="140" as="geometry" />
        </mxCell>
        <mxCell id="dmRrRDA9NEYmGUrwIhRF-42" style="edgeStyle=orthogonalEdgeStyle;rounded=0;orthogonalLoop=1;jettySize=auto;html=1;entryX=1;entryY=0.5;entryDx=0;entryDy=0;" edge="1" parent="1" source="dmRrRDA9NEYmGUrwIhRF-38" target="dmRrRDA9NEYmGUrwIhRF-10">
          <mxGeometry relative="1" as="geometry" />
        </mxCell>
        <mxCell id="dmRrRDA9NEYmGUrwIhRF-44" value="FK_PROJECT_ENV_REFERENCE_PROJECT" style="edgeLabel;html=1;align=center;verticalAlign=middle;resizable=0;points=[];" vertex="1" connectable="0" parent="dmRrRDA9NEYmGUrwIhRF-42">
          <mxGeometry x="-0.1041" relative="1" as="geometry">
            <mxPoint x="5" y="-30" as="offset" />
          </mxGeometry>
        </mxCell>
        <mxCell id="dmRrRDA9NEYmGUrwIhRF-38" value="&lt;div style=&quot;box-sizing:border-box;width:100%;background:#e4e4e4;padding:2px;&quot;&gt;project_env&lt;br&gt;&lt;/div&gt;&lt;table style=&quot;width:100%;font-size:1em;&quot; cellpadding=&quot;2&quot; cellspacing=&quot;0&quot;&gt;&lt;tbody&gt;&lt;tr&gt;&lt;td&gt;PK&lt;/td&gt;&lt;td&gt;id&lt;/td&gt;&lt;/tr&gt;&lt;tr&gt;&lt;td&gt;FK1&lt;/td&gt;&lt;td&gt;-&lt;/td&gt;&lt;/tr&gt;&lt;tr&gt;&lt;td&gt;&lt;/td&gt;&lt;td&gt;project_id&lt;br style=&quot;&quot;&gt;user_id&lt;br style=&quot;&quot;&gt;account_uin&lt;br style=&quot;&quot;&gt;region&lt;br style=&quot;&quot;&gt;zone&lt;br style=&quot;&quot;&gt;image_type&lt;br style=&quot;&quot;&gt;vpc_id&lt;br style=&quot;&quot;&gt;subnet_id&lt;br style=&quot;&quot;&gt;security_group_id&lt;br style=&quot;&quot;&gt;cos_bucket&lt;br style=&quot;&quot;&gt;cfs_id&lt;br style=&quot;&quot;&gt;cfs_group_id&lt;br style=&quot;&quot;&gt;cfs_link&lt;br style=&quot;&quot;&gt;instance_id&lt;br style=&quot;&quot;&gt;instance_ip&lt;br style=&quot;&quot;&gt;instance_password&lt;br style=&quot;&quot;&gt;status(1=创建中,2=创建失败,3=创建成功)&lt;br style=&quot;&quot;&gt;err_msg&lt;br&gt;&lt;/td&gt;&lt;/tr&gt;&lt;/tbody&gt;&lt;/table&gt;" style="verticalAlign=top;align=left;overflow=fill;html=1;" vertex="1" parent="1">
          <mxGeometry x="1530" y="600" width="260" height="330" as="geometry" />
        </mxCell>
        <mxCell id="dmRrRDA9NEYmGUrwIhRF-41" style="edgeStyle=orthogonalEdgeStyle;rounded=0;orthogonalLoop=1;jettySize=auto;html=1;entryX=1;entryY=0.5;entryDx=0;entryDy=0;" edge="1" parent="1" source="dmRrRDA9NEYmGUrwIhRF-39" target="dmRrRDA9NEYmGUrwIhRF-10">
          <mxGeometry relative="1" as="geometry" />
        </mxCell>
        <mxCell id="dmRrRDA9NEYmGUrwIhRF-45" value="FK_PROJECT_CVM_REFERENCE_PROJECT" style="edgeLabel;html=1;align=center;verticalAlign=middle;resizable=0;points=[];" vertex="1" connectable="0" parent="dmRrRDA9NEYmGUrwIhRF-41">
          <mxGeometry x="-0.2731" y="-4" relative="1" as="geometry">
            <mxPoint x="-28" y="-11" as="offset" />
          </mxGeometry>
        </mxCell>
        <mxCell id="dmRrRDA9NEYmGUrwIhRF-39" value="&lt;div style=&quot;box-sizing:border-box;width:100%;background:#e4e4e4;padding:2px;&quot;&gt;project_cvm&lt;/div&gt;&lt;table style=&quot;width:100%;font-size:1em;&quot; cellpadding=&quot;2&quot; cellspacing=&quot;0&quot;&gt;&lt;tbody&gt;&lt;tr&gt;&lt;td&gt;PK&lt;/td&gt;&lt;td&gt;id&lt;/td&gt;&lt;/tr&gt;&lt;tr&gt;&lt;td&gt;FK1&lt;/td&gt;&lt;td&gt;-&lt;/td&gt;&lt;/tr&gt;&lt;tr&gt;&lt;td&gt;&lt;/td&gt;&lt;td&gt;project_id&lt;br&gt;region&lt;br&gt;zone&lt;br&gt;instance_id&lt;br&gt;image_id&lt;br&gt;instance_type&lt;br&gt;instance_charge_type&lt;br&gt;renew_flag&lt;br&gt;period&lt;br&gt;disk_size&lt;br&gt;instance_price&lt;br&gt;money&lt;br&gt;run_time&lt;br&gt;status&lt;br&gt;node_type&lt;br&gt;err_msg&lt;/td&gt;&lt;/tr&gt;&lt;/tbody&gt;&lt;/table&gt;" style="verticalAlign=top;align=left;overflow=fill;html=1;labelBackgroundColor=none;" vertex="1" parent="1">
          <mxGeometry x="1530" y="167.5" width="180" height="295" as="geometry" />
        </mxCell>
        <mxCell id="dmRrRDA9NEYmGUrwIhRF-48" value="&lt;div style=&quot;box-sizing:border-box;width:100%;background:#e4e4e4;padding:2px;&quot;&gt;notify_template&lt;/div&gt;&lt;table style=&quot;width:100%;font-size:1em;&quot; cellpadding=&quot;2&quot; cellspacing=&quot;0&quot;&gt;&lt;tbody&gt;&lt;tr&gt;&lt;td&gt;PK&lt;/td&gt;&lt;td&gt;id&lt;/td&gt;&lt;/tr&gt;&lt;tr&gt;&lt;td&gt;FK1&lt;/td&gt;&lt;td&gt;-&lt;/td&gt;&lt;/tr&gt;&lt;tr&gt;&lt;td&gt;&lt;/td&gt;&lt;td&gt;name&lt;br&gt;content&lt;/td&gt;&lt;/tr&gt;&lt;/tbody&gt;&lt;/table&gt;" style="verticalAlign=top;align=left;overflow=fill;html=1;labelBackgroundColor=none;" vertex="1" parent="1">
          <mxGeometry x="-190" y="1155" width="180" height="90" as="geometry" />
        </mxCell>
        <mxCell id="dmRrRDA9NEYmGUrwIhRF-49" value="&lt;div style=&quot;box-sizing:border-box;width:100%;background:#e4e4e4;padding:2px;&quot;&gt;notify_task&lt;/div&gt;&lt;table style=&quot;width:100%;font-size:1em;&quot; cellpadding=&quot;2&quot; cellspacing=&quot;0&quot;&gt;&lt;tbody&gt;&lt;tr&gt;&lt;td&gt;PK&lt;/td&gt;&lt;td&gt;id&lt;/td&gt;&lt;/tr&gt;&lt;tr&gt;&lt;td&gt;FK1&lt;/td&gt;&lt;td&gt;-&lt;/td&gt;&lt;/tr&gt;&lt;tr&gt;&lt;td&gt;&lt;/td&gt;&lt;td&gt;app_id(应用)&lt;br&gt;channel_id(场景)&lt;br&gt;title&lt;br&gt;content&lt;br&gt;abstract&lt;br&gt;level&lt;br&gt;sender&lt;br&gt;sender_name&lt;br&gt;send_status&lt;br&gt;receiver&lt;br&gt;receiver_name&lt;br&gt;receive_status&lt;br&gt;&lt;/td&gt;&lt;/tr&gt;&lt;/tbody&gt;&lt;/table&gt;" style="verticalAlign=top;align=left;overflow=fill;html=1;labelBackgroundColor=none;" vertex="1" parent="1">
          <mxGeometry x="100" y="1080" width="180" height="240" as="geometry" />
        </mxCell>
        <mxCell id="BgHBSKxdvhH1IlKtlgM_-1" value="1.notify相关的表是干什么的？系统整体的消息通知用。&lt;br&gt;2.tencent_account表是和project绑定的，1对1的关系，后续创建会用SISK？对。&lt;br&gt;3.用户在project中的状态通过什么体现？没有太好的处理。&lt;br&gt;4.operation表是记录什么？记录敏感操作。&lt;br&gt;5.image表中的image有什么用途？创建VNC连接的linux。&lt;br&gt;6.密钥管理中的密码db有记录吗？没有存，直接修改即可。" style="text;html=1;align=left;verticalAlign=middle;resizable=0;points=[];autosize=1;strokeColor=none;fillColor=none;" vertex="1" parent="1">
          <mxGeometry x="15" y="1480" width="450" height="100" as="geometry" />
        </mxCell>
      </root>
    </mxGraphModel>
  </diagram>
  <diagram id="aF4HjZn4esz__3i61Bms" name="泳道图">
    <mxGraphModel dx="1426" dy="794" grid="1" gridSize="10" guides="1" tooltips="1" connect="1" arrows="1" fold="1" page="1" pageScale="1" pageWidth="827" pageHeight="1169" math="0" shadow="0">
      <root>
        <mxCell id="0" />
        <mxCell id="1" parent="0" />
        <mxCell id="BzQM46rRdXbIkxfZsb1q-1" value="OpenEDA用户使用流程图" style="shape=table;startSize=30;container=1;collapsible=0;childLayout=tableLayout;fontStyle=1;align=center;labelBackgroundColor=none;" vertex="1" parent="1">
          <mxGeometry x="210" y="440" width="687" height="1290" as="geometry" />
        </mxCell>
        <mxCell id="BzQM46rRdXbIkxfZsb1q-2" value="" style="shape=tableRow;horizontal=0;startSize=0;swimlaneHead=0;swimlaneBody=0;top=0;left=0;bottom=0;right=0;collapsible=0;dropTarget=0;fillColor=none;points=[[0,0.5],[1,0.5]];portConstraint=eastwest;labelBackgroundColor=none;" vertex="1" parent="BzQM46rRdXbIkxfZsb1q-1">
          <mxGeometry y="30" width="687" height="32" as="geometry" />
        </mxCell>
        <mxCell id="BzQM46rRdXbIkxfZsb1q-103" value="创建者" style="shape=partialRectangle;html=1;whiteSpace=wrap;connectable=0;fillColor=none;top=0;left=0;bottom=0;right=0;overflow=hidden;labelBackgroundColor=none;" vertex="1" parent="BzQM46rRdXbIkxfZsb1q-2">
          <mxGeometry width="140" height="32" as="geometry">
            <mxRectangle width="140" height="32" as="alternateBounds" />
          </mxGeometry>
        </mxCell>
        <mxCell id="BzQM46rRdXbIkxfZsb1q-3" value="用户" style="shape=partialRectangle;html=1;whiteSpace=wrap;connectable=0;fillColor=none;top=0;left=0;bottom=0;right=0;overflow=hidden;labelBackgroundColor=none;" vertex="1" parent="BzQM46rRdXbIkxfZsb1q-2">
          <mxGeometry x="140" width="140" height="32" as="geometry">
            <mxRectangle width="140" height="32" as="alternateBounds" />
          </mxGeometry>
        </mxCell>
        <mxCell id="BzQM46rRdXbIkxfZsb1q-4" value="qq/wx登录平台" style="shape=partialRectangle;html=1;whiteSpace=wrap;connectable=0;fillColor=none;top=0;left=0;bottom=0;right=0;overflow=hidden;labelBackgroundColor=none;" vertex="1" parent="BzQM46rRdXbIkxfZsb1q-2">
          <mxGeometry x="280" width="130" height="32" as="geometry">
            <mxRectangle width="130" height="32" as="alternateBounds" />
          </mxGeometry>
        </mxCell>
        <mxCell id="BzQM46rRdXbIkxfZsb1q-5" value="后台" style="shape=partialRectangle;html=1;whiteSpace=wrap;connectable=0;fillColor=none;top=0;left=0;bottom=0;right=0;overflow=hidden;labelBackgroundColor=none;" vertex="1" parent="BzQM46rRdXbIkxfZsb1q-2">
          <mxGeometry x="410" width="140" height="32" as="geometry">
            <mxRectangle width="140" height="32" as="alternateBounds" />
          </mxGeometry>
        </mxCell>
        <mxCell id="BzQM46rRdXbIkxfZsb1q-15" value="腾讯云" style="shape=partialRectangle;html=1;whiteSpace=wrap;connectable=0;fillColor=none;top=0;left=0;bottom=0;right=0;overflow=hidden;labelBackgroundColor=none;" vertex="1" parent="BzQM46rRdXbIkxfZsb1q-2">
          <mxGeometry x="550" width="137" height="32" as="geometry">
            <mxRectangle width="137" height="32" as="alternateBounds" />
          </mxGeometry>
        </mxCell>
        <mxCell id="BzQM46rRdXbIkxfZsb1q-6" value="" style="shape=tableRow;horizontal=0;startSize=0;swimlaneHead=0;swimlaneBody=0;top=0;left=0;bottom=0;right=0;collapsible=0;dropTarget=0;fillColor=none;points=[[0,0.5],[1,0.5]];portConstraint=eastwest;labelBackgroundColor=none;" vertex="1" parent="BzQM46rRdXbIkxfZsb1q-1">
          <mxGeometry y="62" width="687" height="1228" as="geometry" />
        </mxCell>
        <mxCell id="BzQM46rRdXbIkxfZsb1q-104" style="shape=partialRectangle;html=1;whiteSpace=wrap;connectable=0;fillColor=none;top=0;left=0;bottom=0;right=0;overflow=hidden;labelBackgroundColor=none;" vertex="1" parent="BzQM46rRdXbIkxfZsb1q-6">
          <mxGeometry width="140" height="1228" as="geometry">
            <mxRectangle width="140" height="1228" as="alternateBounds" />
          </mxGeometry>
        </mxCell>
        <mxCell id="BzQM46rRdXbIkxfZsb1q-7" value="" style="shape=partialRectangle;html=1;whiteSpace=wrap;connectable=0;fillColor=none;top=0;left=0;bottom=0;right=0;overflow=hidden;labelBackgroundColor=none;" vertex="1" parent="BzQM46rRdXbIkxfZsb1q-6">
          <mxGeometry x="140" width="140" height="1228" as="geometry">
            <mxRectangle width="140" height="1228" as="alternateBounds" />
          </mxGeometry>
        </mxCell>
        <mxCell id="BzQM46rRdXbIkxfZsb1q-8" value="" style="shape=partialRectangle;html=1;whiteSpace=wrap;connectable=0;fillColor=none;top=0;left=0;bottom=0;right=0;overflow=hidden;labelBackgroundColor=none;" vertex="1" parent="BzQM46rRdXbIkxfZsb1q-6">
          <mxGeometry x="280" width="130" height="1228" as="geometry">
            <mxRectangle width="130" height="1228" as="alternateBounds" />
          </mxGeometry>
        </mxCell>
        <mxCell id="BzQM46rRdXbIkxfZsb1q-9" value="" style="shape=partialRectangle;html=1;whiteSpace=wrap;connectable=0;fillColor=none;top=0;left=0;bottom=0;right=0;overflow=hidden;labelBackgroundColor=none;" vertex="1" parent="BzQM46rRdXbIkxfZsb1q-6">
          <mxGeometry x="410" width="140" height="1228" as="geometry">
            <mxRectangle width="140" height="1228" as="alternateBounds" />
          </mxGeometry>
        </mxCell>
        <mxCell id="BzQM46rRdXbIkxfZsb1q-16" style="shape=partialRectangle;html=1;whiteSpace=wrap;connectable=0;fillColor=none;top=0;left=0;bottom=0;right=0;overflow=hidden;labelBackgroundColor=none;" vertex="1" parent="BzQM46rRdXbIkxfZsb1q-6">
          <mxGeometry x="550" width="137" height="1228" as="geometry">
            <mxRectangle width="137" height="1228" as="alternateBounds" />
          </mxGeometry>
        </mxCell>
        <mxCell id="BzQM46rRdXbIkxfZsb1q-60" style="edgeStyle=orthogonalEdgeStyle;rounded=0;orthogonalLoop=1;jettySize=auto;html=1;entryX=0.5;entryY=0;entryDx=0;entryDy=0;" edge="1" parent="1" target="BzQM46rRdXbIkxfZsb1q-56">
          <mxGeometry relative="1" as="geometry">
            <mxPoint x="386" y="760" as="sourcePoint" />
          </mxGeometry>
        </mxCell>
        <mxCell id="BzQM46rRdXbIkxfZsb1q-17" value="加入团队" style="rounded=0;whiteSpace=wrap;html=1;labelBackgroundColor=none;" vertex="1" parent="1">
          <mxGeometry x="354" y="730" width="62" height="30" as="geometry" />
        </mxCell>
        <mxCell id="BzQM46rRdXbIkxfZsb1q-111" style="edgeStyle=orthogonalEdgeStyle;rounded=0;orthogonalLoop=1;jettySize=auto;html=1;entryX=0.5;entryY=0;entryDx=0;entryDy=0;" edge="1" parent="1" source="BzQM46rRdXbIkxfZsb1q-23" target="BzQM46rRdXbIkxfZsb1q-17">
          <mxGeometry relative="1" as="geometry" />
        </mxCell>
        <mxCell id="BzQM46rRdXbIkxfZsb1q-112" style="edgeStyle=orthogonalEdgeStyle;rounded=0;orthogonalLoop=1;jettySize=auto;html=1;entryX=0.5;entryY=0;entryDx=0;entryDy=0;" edge="1" parent="1" source="BzQM46rRdXbIkxfZsb1q-23" target="BzQM46rRdXbIkxfZsb1q-26">
          <mxGeometry relative="1" as="geometry" />
        </mxCell>
        <mxCell id="BzQM46rRdXbIkxfZsb1q-23" value="登录成功" style="rounded=0;whiteSpace=wrap;html=1;labelBackgroundColor=none;" vertex="1" parent="1">
          <mxGeometry x="389" y="620" width="62" height="30" as="geometry" />
        </mxCell>
        <mxCell id="BzQM46rRdXbIkxfZsb1q-71" style="edgeStyle=orthogonalEdgeStyle;rounded=0;orthogonalLoop=1;jettySize=auto;html=1;entryX=0.5;entryY=0;entryDx=0;entryDy=0;" edge="1" parent="1" source="BzQM46rRdXbIkxfZsb1q-26" target="BzQM46rRdXbIkxfZsb1q-70">
          <mxGeometry relative="1" as="geometry" />
        </mxCell>
        <mxCell id="BzQM46rRdXbIkxfZsb1q-26" value="创建团队*" style="rounded=0;whiteSpace=wrap;html=1;labelBackgroundColor=none;" vertex="1" parent="1">
          <mxGeometry x="423" y="730" width="62" height="30" as="geometry" />
        </mxCell>
        <mxCell id="BzQM46rRdXbIkxfZsb1q-29" value="记录登录态" style="rounded=0;whiteSpace=wrap;html=1;labelBackgroundColor=none;" vertex="1" parent="1">
          <mxGeometry x="660" y="620" width="62" height="30" as="geometry" />
        </mxCell>
        <mxCell id="BzQM46rRdXbIkxfZsb1q-44" style="edgeStyle=orthogonalEdgeStyle;rounded=0;orthogonalLoop=1;jettySize=auto;html=1;entryX=1;entryY=0.5;entryDx=0;entryDy=0;" edge="1" parent="1" source="BzQM46rRdXbIkxfZsb1q-33" target="BzQM46rRdXbIkxfZsb1q-23">
          <mxGeometry relative="1" as="geometry" />
        </mxCell>
        <mxCell id="BzQM46rRdXbIkxfZsb1q-45" style="edgeStyle=orthogonalEdgeStyle;rounded=0;orthogonalLoop=1;jettySize=auto;html=1;entryX=0;entryY=0.5;entryDx=0;entryDy=0;" edge="1" parent="1" source="BzQM46rRdXbIkxfZsb1q-33" target="BzQM46rRdXbIkxfZsb1q-29">
          <mxGeometry relative="1" as="geometry" />
        </mxCell>
        <mxCell id="BzQM46rRdXbIkxfZsb1q-33" value="返回登录态" style="rounded=0;whiteSpace=wrap;html=1;labelBackgroundColor=none;" vertex="1" parent="1">
          <mxGeometry x="524.5" y="620" width="62" height="30" as="geometry" />
        </mxCell>
        <mxCell id="BzQM46rRdXbIkxfZsb1q-36" style="edgeStyle=orthogonalEdgeStyle;rounded=0;orthogonalLoop=1;jettySize=auto;html=1;entryX=0.5;entryY=0;entryDx=0;entryDy=0;" edge="1" parent="1" source="BzQM46rRdXbIkxfZsb1q-34" target="BzQM46rRdXbIkxfZsb1q-33">
          <mxGeometry relative="1" as="geometry" />
        </mxCell>
        <mxCell id="BzQM46rRdXbIkxfZsb1q-43" value="Y" style="edgeLabel;html=1;align=center;verticalAlign=middle;resizable=0;points=[];" vertex="1" connectable="0" parent="BzQM46rRdXbIkxfZsb1q-36">
          <mxGeometry x="-0.1209" y="3" relative="1" as="geometry">
            <mxPoint as="offset" />
          </mxGeometry>
        </mxCell>
        <mxCell id="BzQM46rRdXbIkxfZsb1q-41" style="edgeStyle=orthogonalEdgeStyle;rounded=0;orthogonalLoop=1;jettySize=auto;html=1;entryX=0.5;entryY=0;entryDx=0;entryDy=0;" edge="1" parent="1" source="BzQM46rRdXbIkxfZsb1q-34" target="BzQM46rRdXbIkxfZsb1q-37">
          <mxGeometry relative="1" as="geometry">
            <Array as="points">
              <mxPoint x="556" y="520" />
              <mxPoint x="420" y="520" />
            </Array>
          </mxGeometry>
        </mxCell>
        <mxCell id="BzQM46rRdXbIkxfZsb1q-42" value="N" style="edgeLabel;html=1;align=center;verticalAlign=middle;resizable=0;points=[];" vertex="1" connectable="0" parent="BzQM46rRdXbIkxfZsb1q-41">
          <mxGeometry x="-0.345" y="3" relative="1" as="geometry">
            <mxPoint as="offset" />
          </mxGeometry>
        </mxCell>
        <mxCell id="BzQM46rRdXbIkxfZsb1q-34" value="校验登录态" style="rhombus;whiteSpace=wrap;html=1;labelBackgroundColor=none;" vertex="1" parent="1">
          <mxGeometry x="511" y="535" width="90" height="40" as="geometry" />
        </mxCell>
        <mxCell id="BzQM46rRdXbIkxfZsb1q-40" style="edgeStyle=orthogonalEdgeStyle;rounded=0;orthogonalLoop=1;jettySize=auto;html=1;" edge="1" parent="1" source="BzQM46rRdXbIkxfZsb1q-37" target="BzQM46rRdXbIkxfZsb1q-34">
          <mxGeometry relative="1" as="geometry" />
        </mxCell>
        <mxCell id="BzQM46rRdXbIkxfZsb1q-37" value="登录*" style="rounded=0;whiteSpace=wrap;html=1;labelBackgroundColor=none;" vertex="1" parent="1">
          <mxGeometry x="389" y="540" width="62" height="30" as="geometry" />
        </mxCell>
        <mxCell id="BzQM46rRdXbIkxfZsb1q-106" style="edgeStyle=orthogonalEdgeStyle;rounded=0;orthogonalLoop=1;jettySize=auto;html=1;entryX=1;entryY=0.5;entryDx=0;entryDy=0;" edge="1" parent="1" source="BzQM46rRdXbIkxfZsb1q-56" target="BzQM46rRdXbIkxfZsb1q-58">
          <mxGeometry relative="1" as="geometry" />
        </mxCell>
        <mxCell id="BzQM46rRdXbIkxfZsb1q-56" value="输入邀请码" style="rounded=0;whiteSpace=wrap;html=1;labelBackgroundColor=none;" vertex="1" parent="1">
          <mxGeometry x="355" y="804" width="62" height="30" as="geometry" />
        </mxCell>
        <mxCell id="BzQM46rRdXbIkxfZsb1q-57" value="加入成功" style="rounded=0;whiteSpace=wrap;html=1;labelBackgroundColor=none;" vertex="1" parent="1">
          <mxGeometry x="355" y="870" width="62" height="30" as="geometry" />
        </mxCell>
        <mxCell id="BzQM46rRdXbIkxfZsb1q-108" style="edgeStyle=orthogonalEdgeStyle;rounded=0;orthogonalLoop=1;jettySize=auto;html=1;entryX=0;entryY=0.5;entryDx=0;entryDy=0;" edge="1" parent="1" source="BzQM46rRdXbIkxfZsb1q-58" target="BzQM46rRdXbIkxfZsb1q-57">
          <mxGeometry relative="1" as="geometry">
            <Array as="points">
              <mxPoint x="275" y="885" />
            </Array>
          </mxGeometry>
        </mxCell>
        <mxCell id="BzQM46rRdXbIkxfZsb1q-110" value="Y" style="edgeLabel;html=1;align=center;verticalAlign=middle;resizable=0;points=[];" vertex="1" connectable="0" parent="BzQM46rRdXbIkxfZsb1q-108">
          <mxGeometry x="-0.5891" y="1" relative="1" as="geometry">
            <mxPoint as="offset" />
          </mxGeometry>
        </mxCell>
        <mxCell id="BzQM46rRdXbIkxfZsb1q-114" style="edgeStyle=orthogonalEdgeStyle;rounded=0;orthogonalLoop=1;jettySize=auto;html=1;entryX=0.5;entryY=0;entryDx=0;entryDy=0;" edge="1" parent="1" source="BzQM46rRdXbIkxfZsb1q-58" target="BzQM46rRdXbIkxfZsb1q-56">
          <mxGeometry relative="1" as="geometry">
            <Array as="points">
              <mxPoint x="275" y="779" />
              <mxPoint x="386" y="779" />
            </Array>
          </mxGeometry>
        </mxCell>
        <mxCell id="BzQM46rRdXbIkxfZsb1q-115" value="N" style="edgeLabel;html=1;align=center;verticalAlign=middle;resizable=0;points=[];" vertex="1" connectable="0" parent="BzQM46rRdXbIkxfZsb1q-114">
          <mxGeometry x="-0.2436" relative="1" as="geometry">
            <mxPoint y="1" as="offset" />
          </mxGeometry>
        </mxCell>
        <mxCell id="BzQM46rRdXbIkxfZsb1q-58" value="审核邀请" style="rhombus;whiteSpace=wrap;html=1;labelBackgroundColor=none;" vertex="1" parent="1">
          <mxGeometry x="230" y="799" width="90" height="40" as="geometry" />
        </mxCell>
        <mxCell id="BzQM46rRdXbIkxfZsb1q-69" value="*: 首次操作时需要同意相关协议" style="text;html=1;align=center;verticalAlign=middle;resizable=0;points=[];autosize=1;strokeColor=none;fillColor=none;" vertex="1" parent="1">
          <mxGeometry y="1604" width="190" height="30" as="geometry" />
        </mxCell>
        <mxCell id="BzQM46rRdXbIkxfZsb1q-98" style="edgeStyle=orthogonalEdgeStyle;rounded=0;orthogonalLoop=1;jettySize=auto;html=1;entryX=0.5;entryY=0;entryDx=0;entryDy=0;" edge="1" parent="1" source="BzQM46rRdXbIkxfZsb1q-70" target="BzQM46rRdXbIkxfZsb1q-97">
          <mxGeometry relative="1" as="geometry" />
        </mxCell>
        <mxCell id="BzQM46rRdXbIkxfZsb1q-70" value="填写团队名" style="rounded=0;whiteSpace=wrap;html=1;labelBackgroundColor=none;" vertex="1" parent="1">
          <mxGeometry x="423" y="910" width="62" height="30" as="geometry" />
        </mxCell>
        <mxCell id="BzQM46rRdXbIkxfZsb1q-93" style="edgeStyle=orthogonalEdgeStyle;rounded=0;orthogonalLoop=1;jettySize=auto;html=1;" edge="1" parent="1" source="BzQM46rRdXbIkxfZsb1q-72" target="BzQM46rRdXbIkxfZsb1q-92">
          <mxGeometry relative="1" as="geometry" />
        </mxCell>
        <mxCell id="BzQM46rRdXbIkxfZsb1q-72" value="子账号授权" style="rounded=0;whiteSpace=wrap;html=1;labelBackgroundColor=none;" vertex="1" parent="1">
          <mxGeometry x="423" y="1150" width="62" height="30" as="geometry" />
        </mxCell>
        <mxCell id="BzQM46rRdXbIkxfZsb1q-78" style="edgeStyle=orthogonalEdgeStyle;rounded=0;orthogonalLoop=1;jettySize=auto;html=1;entryX=0.5;entryY=0;entryDx=0;entryDy=0;" edge="1" parent="1" source="BzQM46rRdXbIkxfZsb1q-73" target="BzQM46rRdXbIkxfZsb1q-75">
          <mxGeometry relative="1" as="geometry" />
        </mxCell>
        <mxCell id="BzQM46rRdXbIkxfZsb1q-73" value="登录腾讯云" style="rounded=0;whiteSpace=wrap;html=1;labelBackgroundColor=none;" vertex="1" parent="1">
          <mxGeometry x="802" y="987.5" width="62" height="30" as="geometry" />
        </mxCell>
        <mxCell id="BzQM46rRdXbIkxfZsb1q-74" value="&lt;div style=&quot;text-align: left;&quot;&gt;&lt;span style=&quot;background-color: initial;&quot;&gt;1.创建子账号时，访问方式的不同有什么影响？考虑 安全性，不提供腾讯云登录方式。&lt;/span&gt;&lt;/div&gt;&lt;div style=&quot;text-align: left;&quot;&gt;&lt;span style=&quot;background-color: initial;&quot;&gt;2.创建节点xfce是什么？GUI的风格。&lt;/span&gt;&lt;/div&gt;" style="text;html=1;align=center;verticalAlign=middle;resizable=0;points=[];autosize=1;strokeColor=none;fillColor=none;" vertex="1" parent="1">
          <mxGeometry y="1780" width="480" height="40" as="geometry" />
        </mxCell>
        <mxCell id="BzQM46rRdXbIkxfZsb1q-80" style="edgeStyle=orthogonalEdgeStyle;rounded=0;orthogonalLoop=1;jettySize=auto;html=1;entryX=1;entryY=0.5;entryDx=0;entryDy=0;" edge="1" parent="1" source="BzQM46rRdXbIkxfZsb1q-75" target="BzQM46rRdXbIkxfZsb1q-79">
          <mxGeometry relative="1" as="geometry" />
        </mxCell>
        <mxCell id="BzQM46rRdXbIkxfZsb1q-75" value="创建子账号" style="rounded=0;whiteSpace=wrap;html=1;labelBackgroundColor=none;" vertex="1" parent="1">
          <mxGeometry x="802" y="1075" width="62" height="30" as="geometry" />
        </mxCell>
        <mxCell id="BzQM46rRdXbIkxfZsb1q-81" style="edgeStyle=orthogonalEdgeStyle;rounded=0;orthogonalLoop=1;jettySize=auto;html=1;entryX=0.5;entryY=0;entryDx=0;entryDy=0;" edge="1" parent="1" source="BzQM46rRdXbIkxfZsb1q-79" target="BzQM46rRdXbIkxfZsb1q-72">
          <mxGeometry relative="1" as="geometry" />
        </mxCell>
        <mxCell id="BzQM46rRdXbIkxfZsb1q-79" value="获取SISK" style="rounded=0;whiteSpace=wrap;html=1;labelBackgroundColor=none;" vertex="1" parent="1">
          <mxGeometry x="423" y="1075" width="62" height="30" as="geometry" />
        </mxCell>
        <mxCell id="BzQM46rRdXbIkxfZsb1q-96" style="edgeStyle=orthogonalEdgeStyle;rounded=0;orthogonalLoop=1;jettySize=auto;html=1;entryX=0;entryY=0.5;entryDx=0;entryDy=0;" edge="1" parent="1" source="BzQM46rRdXbIkxfZsb1q-92" target="BzQM46rRdXbIkxfZsb1q-95">
          <mxGeometry relative="1" as="geometry" />
        </mxCell>
        <mxCell id="BzQM46rRdXbIkxfZsb1q-92" value="创建管理&lt;br&gt;节点" style="rounded=0;whiteSpace=wrap;html=1;labelBackgroundColor=none;" vertex="1" parent="1">
          <mxGeometry x="423" y="1230" width="62" height="30" as="geometry" />
        </mxCell>
        <mxCell id="BzQM46rRdXbIkxfZsb1q-95" value="创建cvm" style="rounded=0;whiteSpace=wrap;html=1;labelBackgroundColor=none;" vertex="1" parent="1">
          <mxGeometry x="802" y="1230" width="62" height="30" as="geometry" />
        </mxCell>
        <mxCell id="BzQM46rRdXbIkxfZsb1q-99" style="edgeStyle=orthogonalEdgeStyle;rounded=0;orthogonalLoop=1;jettySize=auto;html=1;entryX=0;entryY=0.5;entryDx=0;entryDy=0;" edge="1" parent="1" source="BzQM46rRdXbIkxfZsb1q-97" target="BzQM46rRdXbIkxfZsb1q-73">
          <mxGeometry relative="1" as="geometry" />
        </mxCell>
        <mxCell id="BzQM46rRdXbIkxfZsb1q-101" value="N" style="edgeLabel;html=1;align=center;verticalAlign=middle;resizable=0;points=[];" vertex="1" connectable="0" parent="BzQM46rRdXbIkxfZsb1q-99">
          <mxGeometry x="-0.8494" y="4" relative="1" as="geometry">
            <mxPoint x="1" as="offset" />
          </mxGeometry>
        </mxCell>
        <mxCell id="BzQM46rRdXbIkxfZsb1q-100" style="edgeStyle=orthogonalEdgeStyle;rounded=0;orthogonalLoop=1;jettySize=auto;html=1;entryX=0.5;entryY=0;entryDx=0;entryDy=0;" edge="1" parent="1" source="BzQM46rRdXbIkxfZsb1q-97" target="BzQM46rRdXbIkxfZsb1q-79">
          <mxGeometry relative="1" as="geometry" />
        </mxCell>
        <mxCell id="BzQM46rRdXbIkxfZsb1q-102" value="Y" style="edgeLabel;html=1;align=center;verticalAlign=middle;resizable=0;points=[];" vertex="1" connectable="0" parent="BzQM46rRdXbIkxfZsb1q-100">
          <mxGeometry x="-0.1333" y="-2" relative="1" as="geometry">
            <mxPoint as="offset" />
          </mxGeometry>
        </mxCell>
        <mxCell id="BzQM46rRdXbIkxfZsb1q-97" value="是否有&lt;br&gt;SISK" style="rhombus;whiteSpace=wrap;html=1;labelBackgroundColor=none;" vertex="1" parent="1">
          <mxGeometry x="417.5" y="975" width="73" height="55" as="geometry" />
        </mxCell>
        <mxCell id="BzQM46rRdXbIkxfZsb1q-122" style="edgeStyle=orthogonalEdgeStyle;rounded=0;orthogonalLoop=1;jettySize=auto;html=1;" edge="1" parent="1" source="BzQM46rRdXbIkxfZsb1q-113" target="BzQM46rRdXbIkxfZsb1q-121">
          <mxGeometry relative="1" as="geometry" />
        </mxCell>
        <mxCell id="BzQM46rRdXbIkxfZsb1q-113" value="管理用户" style="rounded=0;whiteSpace=wrap;html=1;labelBackgroundColor=none;" vertex="1" parent="1">
          <mxGeometry x="244" y="1300" width="62" height="30" as="geometry" />
        </mxCell>
        <mxCell id="BzQM46rRdXbIkxfZsb1q-124" style="edgeStyle=orthogonalEdgeStyle;rounded=0;orthogonalLoop=1;jettySize=auto;html=1;entryX=0;entryY=0.5;entryDx=0;entryDy=0;" edge="1" parent="1" source="BzQM46rRdXbIkxfZsb1q-116" target="BzQM46rRdXbIkxfZsb1q-123">
          <mxGeometry relative="1" as="geometry" />
        </mxCell>
        <mxCell id="BzQM46rRdXbIkxfZsb1q-116" value="创建计算&lt;br&gt;节点" style="rounded=0;whiteSpace=wrap;html=1;labelBackgroundColor=none;" vertex="1" parent="1">
          <mxGeometry x="389" y="1360" width="62" height="30" as="geometry" />
        </mxCell>
        <mxCell id="BzQM46rRdXbIkxfZsb1q-126" style="edgeStyle=orthogonalEdgeStyle;rounded=0;orthogonalLoop=1;jettySize=auto;html=1;" edge="1" parent="1" source="BzQM46rRdXbIkxfZsb1q-117" target="BzQM46rRdXbIkxfZsb1q-125">
          <mxGeometry relative="1" as="geometry" />
        </mxCell>
        <mxCell id="BzQM46rRdXbIkxfZsb1q-117" value="释放计算&lt;br&gt;节点" style="rounded=0;whiteSpace=wrap;html=1;labelBackgroundColor=none;" vertex="1" parent="1">
          <mxGeometry x="389" y="1440" width="62" height="30" as="geometry" />
        </mxCell>
        <mxCell id="BzQM46rRdXbIkxfZsb1q-118" value="下载数据" style="rounded=0;whiteSpace=wrap;html=1;labelBackgroundColor=none;" vertex="1" parent="1">
          <mxGeometry x="389" y="1590" width="62" height="30" as="geometry" />
        </mxCell>
        <mxCell id="BzQM46rRdXbIkxfZsb1q-119" value="监控" style="rounded=0;whiteSpace=wrap;html=1;labelBackgroundColor=none;" vertex="1" parent="1">
          <mxGeometry x="389" y="1660" width="62" height="30" as="geometry" />
        </mxCell>
        <mxCell id="BzQM46rRdXbIkxfZsb1q-121" value="修改用户&lt;br&gt;权限" style="rounded=0;whiteSpace=wrap;html=1;labelBackgroundColor=none;" vertex="1" parent="1">
          <mxGeometry x="660" y="1300" width="62" height="30" as="geometry" />
        </mxCell>
        <mxCell id="BzQM46rRdXbIkxfZsb1q-123" value="创建cvm" style="rounded=0;whiteSpace=wrap;html=1;labelBackgroundColor=none;" vertex="1" parent="1">
          <mxGeometry x="802" y="1360" width="62" height="30" as="geometry" />
        </mxCell>
        <mxCell id="BzQM46rRdXbIkxfZsb1q-125" value="删除cvm" style="rounded=0;whiteSpace=wrap;html=1;labelBackgroundColor=none;" vertex="1" parent="1">
          <mxGeometry x="802" y="1440" width="62" height="30" as="geometry" />
        </mxCell>
        <mxCell id="BzQM46rRdXbIkxfZsb1q-129" style="edgeStyle=orthogonalEdgeStyle;rounded=0;orthogonalLoop=1;jettySize=auto;html=1;entryX=0;entryY=0.5;entryDx=0;entryDy=0;" edge="1" parent="1" source="BzQM46rRdXbIkxfZsb1q-127" target="BzQM46rRdXbIkxfZsb1q-128">
          <mxGeometry relative="1" as="geometry" />
        </mxCell>
        <mxCell id="BzQM46rRdXbIkxfZsb1q-127" value="修改密码" style="rounded=0;whiteSpace=wrap;html=1;labelBackgroundColor=none;" vertex="1" parent="1">
          <mxGeometry x="389" y="1520" width="62" height="30" as="geometry" />
        </mxCell>
        <mxCell id="BzQM46rRdXbIkxfZsb1q-128" value="修改用户&lt;br&gt;密码" style="rounded=0;whiteSpace=wrap;html=1;labelBackgroundColor=none;" vertex="1" parent="1">
          <mxGeometry x="660" y="1520" width="62" height="30" as="geometry" />
        </mxCell>
      </root>
    </mxGraphModel>
  </diagram>
  <diagram id="btMjs_8C5yggfHMF01eK" name="代码">
    <mxGraphModel dx="2253" dy="794" grid="1" gridSize="10" guides="1" tooltips="1" connect="1" arrows="1" fold="1" page="1" pageScale="1" pageWidth="827" pageHeight="1169" math="0" shadow="0">
      <root>
        <mxCell id="0" />
        <mxCell id="1" parent="0" />
        <mxCell id="tSqiz03PZhfYDKqzlnPl-26" value="" style="rounded=0;whiteSpace=wrap;html=1;labelBackgroundColor=none;dashed=1;" vertex="1" parent="1">
          <mxGeometry x="-533" y="900" width="1803" height="280" as="geometry" />
        </mxCell>
        <mxCell id="tSqiz03PZhfYDKqzlnPl-24" style="edgeStyle=orthogonalEdgeStyle;rounded=0;orthogonalLoop=1;jettySize=auto;html=1;entryX=0;entryY=0.5;entryDx=0;entryDy=0;" edge="1" parent="1" source="tSqiz03PZhfYDKqzlnPl-7" target="tSqiz03PZhfYDKqzlnPl-22">
          <mxGeometry relative="1" as="geometry" />
        </mxCell>
        <mxCell id="tSqiz03PZhfYDKqzlnPl-25" value="ssh -p 22" style="edgeLabel;html=1;align=center;verticalAlign=middle;resizable=0;points=[];" vertex="1" connectable="0" parent="tSqiz03PZhfYDKqzlnPl-24">
          <mxGeometry x="0.1184" y="-1" relative="1" as="geometry">
            <mxPoint as="offset" />
          </mxGeometry>
        </mxCell>
        <mxCell id="tSqiz03PZhfYDKqzlnPl-7" value="" style="rounded=0;whiteSpace=wrap;html=1;labelBackgroundColor=none;fillColor=#dae8fc;strokeColor=#6c8ebf;" vertex="1" parent="1">
          <mxGeometry x="-473" y="920" width="623" height="220" as="geometry" />
        </mxCell>
        <mxCell id="tSqiz03PZhfYDKqzlnPl-6" value="" style="rounded=0;whiteSpace=wrap;html=1;labelBackgroundColor=none;fillColor=#ffe6cc;strokeColor=#d79b00;" vertex="1" parent="1">
          <mxGeometry x="-390" y="510" width="1380" height="370" as="geometry" />
        </mxCell>
        <mxCell id="e-3DsLQ5n08EXnR5hzsG-2" value="1.config中ServiceRoleSecretId是干什么的？&lt;br&gt;2.pkg/rpc/interceptor中拦截器干什么的？rpc目录作用？&lt;br&gt;3.pkg/schedule目录作用？&lt;br&gt;4.internal/pkg/db/models/filter和project_allow_ip作用？&lt;br&gt;&lt;br&gt;5.common.proto的作用？&lt;br&gt;6.RPC服务只是edactld服务吗？&lt;br&gt;7.internal/command服务作用？&lt;br&gt;8.apiserver/logic/gucad作用？&lt;br&gt;9.apiserver中controller目录的作用？logic？&lt;br&gt;10.comsumer接口？handler目录？&lt;br&gt;&lt;br&gt;部署？&lt;br&gt;使用guacd命令的代码？" style="text;html=1;align=left;verticalAlign=middle;resizable=0;points=[];autosize=1;strokeColor=none;fillColor=none;" vertex="1" parent="1">
          <mxGeometry x="250" y="280" width="320" height="220" as="geometry" />
        </mxCell>
        <mxCell id="5nUwZJZVLRGrAxREaGjv-6" style="edgeStyle=orthogonalEdgeStyle;rounded=0;orthogonalLoop=1;jettySize=auto;html=1;entryX=0;entryY=0.5;entryDx=0;entryDy=0;" edge="1" parent="1" source="e-3DsLQ5n08EXnR5hzsG-3" target="e-3DsLQ5n08EXnR5hzsG-4">
          <mxGeometry relative="1" as="geometry" />
        </mxCell>
        <mxCell id="tSqiz03PZhfYDKqzlnPl-9" style="edgeStyle=orthogonalEdgeStyle;rounded=0;orthogonalLoop=1;jettySize=auto;html=1;entryX=0.5;entryY=0;entryDx=0;entryDy=0;" edge="1" parent="1" source="e-3DsLQ5n08EXnR5hzsG-3" target="vAkFynC4GO7A3RIAd4qJ-2">
          <mxGeometry relative="1" as="geometry" />
        </mxCell>
        <mxCell id="e-3DsLQ5n08EXnR5hzsG-3" value="apiserver&lt;br&gt;鉴权、云API&lt;br&gt;无db" style="rounded=0;whiteSpace=wrap;html=1;labelBackgroundColor=none;fillColor=#e1d5e7;strokeColor=#9673a6;" vertex="1" parent="1">
          <mxGeometry x="-110" y="620" width="120" height="60" as="geometry" />
        </mxCell>
        <mxCell id="5nUwZJZVLRGrAxREaGjv-22" style="edgeStyle=orthogonalEdgeStyle;rounded=0;orthogonalLoop=1;jettySize=auto;html=1;entryX=0;entryY=0.5;entryDx=0;entryDy=0;" edge="1" parent="1" source="e-3DsLQ5n08EXnR5hzsG-4" target="5nUwZJZVLRGrAxREaGjv-21">
          <mxGeometry relative="1" as="geometry" />
        </mxCell>
        <mxCell id="tSqiz03PZhfYDKqzlnPl-4" style="edgeStyle=orthogonalEdgeStyle;rounded=0;orthogonalLoop=1;jettySize=auto;html=1;entryX=0.5;entryY=0;entryDx=0;entryDy=0;" edge="1" parent="1" source="e-3DsLQ5n08EXnR5hzsG-4" target="5nUwZJZVLRGrAxREaGjv-19">
          <mxGeometry relative="1" as="geometry">
            <mxPoint x="710" y="650" as="targetPoint" />
          </mxGeometry>
        </mxCell>
        <mxCell id="tSqiz03PZhfYDKqzlnPl-19" style="edgeStyle=orthogonalEdgeStyle;rounded=0;orthogonalLoop=1;jettySize=auto;html=1;entryX=1;entryY=0.5;entryDx=0;entryDy=0;" edge="1" parent="1" source="e-3DsLQ5n08EXnR5hzsG-4" target="e-3DsLQ5n08EXnR5hzsG-5">
          <mxGeometry relative="1" as="geometry">
            <Array as="points">
              <mxPoint x="250" y="980" />
            </Array>
          </mxGeometry>
        </mxCell>
        <mxCell id="e-3DsLQ5n08EXnR5hzsG-4" value="consumer&lt;br&gt;API服务" style="rounded=0;whiteSpace=wrap;html=1;labelBackgroundColor=none;fillColor=#e1d5e7;strokeColor=#9673a6;" vertex="1" parent="1">
          <mxGeometry x="190" y="620" width="120" height="60" as="geometry" />
        </mxCell>
        <mxCell id="e-3DsLQ5n08EXnR5hzsG-5" value="edactld&lt;br&gt;内部api服务，响应rpc" style="rounded=0;whiteSpace=wrap;html=1;labelBackgroundColor=none;fillColor=#e1d5e7;strokeColor=#9673a6;" vertex="1" parent="1">
          <mxGeometry x="-413" y="950" width="120" height="60" as="geometry" />
        </mxCell>
        <mxCell id="tSqiz03PZhfYDKqzlnPl-2" style="edgeStyle=orthogonalEdgeStyle;rounded=0;orthogonalLoop=1;jettySize=auto;html=1;entryX=0.5;entryY=1;entryDx=0;entryDy=0;" edge="1" parent="1" source="e-3DsLQ5n08EXnR5hzsG-6" target="vAkFynC4GO7A3RIAd4qJ-1">
          <mxGeometry relative="1" as="geometry" />
        </mxCell>
        <mxCell id="e-3DsLQ5n08EXnR5hzsG-6" value="worker&lt;br&gt;类consumer" style="rounded=0;whiteSpace=wrap;html=1;labelBackgroundColor=none;fillColor=#e1d5e7;strokeColor=#9673a6;" vertex="1" parent="1">
          <mxGeometry x="370" y="770" width="120" height="60" as="geometry" />
        </mxCell>
        <mxCell id="5nUwZJZVLRGrAxREaGjv-20" style="edgeStyle=orthogonalEdgeStyle;rounded=0;orthogonalLoop=1;jettySize=auto;html=1;" edge="1" parent="1" source="vAkFynC4GO7A3RIAd4qJ-1" target="5nUwZJZVLRGrAxREaGjv-19">
          <mxGeometry relative="1" as="geometry" />
        </mxCell>
        <mxCell id="vAkFynC4GO7A3RIAd4qJ-1" value="pkg: machinery" style="whiteSpace=wrap;html=1;labelBackgroundColor=none;" vertex="1" parent="1">
          <mxGeometry x="560" y="680" width="120" height="60" as="geometry" />
        </mxCell>
        <mxCell id="5nUwZJZVLRGrAxREaGjv-16" style="edgeStyle=orthogonalEdgeStyle;rounded=0;orthogonalLoop=1;jettySize=auto;html=1;" edge="1" parent="1" source="vAkFynC4GO7A3RIAd4qJ-2" target="5nUwZJZVLRGrAxREaGjv-15">
          <mxGeometry relative="1" as="geometry" />
        </mxCell>
        <mxCell id="tSqiz03PZhfYDKqzlnPl-10" style="edgeStyle=orthogonalEdgeStyle;rounded=0;orthogonalLoop=1;jettySize=auto;html=1;entryX=0.5;entryY=0;entryDx=0;entryDy=0;" edge="1" parent="1" source="vAkFynC4GO7A3RIAd4qJ-2" target="tSqiz03PZhfYDKqzlnPl-11">
          <mxGeometry relative="1" as="geometry" />
        </mxCell>
        <mxCell id="vAkFynC4GO7A3RIAd4qJ-2" value="pkg: guacamole&lt;br&gt;协议转换" style="whiteSpace=wrap;html=1;labelBackgroundColor=none;" vertex="1" parent="1">
          <mxGeometry x="-110" y="750" width="120" height="60" as="geometry" />
        </mxCell>
        <mxCell id="tSqiz03PZhfYDKqzlnPl-18" style="edgeStyle=orthogonalEdgeStyle;rounded=0;orthogonalLoop=1;jettySize=auto;html=1;entryX=0;entryY=0.5;entryDx=0;entryDy=0;" edge="1" parent="1" source="5nUwZJZVLRGrAxREaGjv-1" target="e-3DsLQ5n08EXnR5hzsG-3">
          <mxGeometry relative="1" as="geometry">
            <Array as="points">
              <mxPoint x="-170" y="650" />
            </Array>
          </mxGeometry>
        </mxCell>
        <mxCell id="5nUwZJZVLRGrAxREaGjv-1" value="command&lt;br&gt;响应eda-cli" style="rounded=0;whiteSpace=wrap;html=1;labelBackgroundColor=none;fillColor=#e1d5e7;strokeColor=#9673a6;" vertex="1" parent="1">
          <mxGeometry x="-210" y="1020" width="120" height="60" as="geometry" />
        </mxCell>
        <mxCell id="5nUwZJZVLRGrAxREaGjv-4" value="http" style="text;html=1;align=center;verticalAlign=middle;resizable=0;points=[];autosize=1;strokeColor=none;fillColor=none;" vertex="1" parent="1">
          <mxGeometry x="-30" y="565" width="40" height="30" as="geometry" />
        </mxCell>
        <mxCell id="5nUwZJZVLRGrAxREaGjv-5" value="rpc" style="text;html=1;align=center;verticalAlign=middle;resizable=0;points=[];autosize=1;strokeColor=none;fillColor=none;" vertex="1" parent="1">
          <mxGeometry x="230" y="565" width="40" height="30" as="geometry" />
        </mxCell>
        <mxCell id="5nUwZJZVLRGrAxREaGjv-11" style="edgeStyle=orthogonalEdgeStyle;rounded=0;orthogonalLoop=1;jettySize=auto;html=1;" edge="1" parent="1" source="5nUwZJZVLRGrAxREaGjv-9" target="e-3DsLQ5n08EXnR5hzsG-3">
          <mxGeometry relative="1" as="geometry" />
        </mxCell>
        <mxCell id="5nUwZJZVLRGrAxREaGjv-9" value="FE" style="whiteSpace=wrap;html=1;labelBackgroundColor=none;" vertex="1" parent="1">
          <mxGeometry x="-350" y="620" width="120" height="60" as="geometry" />
        </mxCell>
        <mxCell id="5nUwZJZVLRGrAxREaGjv-13" style="edgeStyle=orthogonalEdgeStyle;rounded=0;orthogonalLoop=1;jettySize=auto;html=1;entryX=0;entryY=0.5;entryDx=0;entryDy=0;" edge="1" parent="1" source="5nUwZJZVLRGrAxREaGjv-12" target="vAkFynC4GO7A3RIAd4qJ-2">
          <mxGeometry relative="1" as="geometry" />
        </mxCell>
        <mxCell id="5nUwZJZVLRGrAxREaGjv-12" value="protol: WS" style="whiteSpace=wrap;html=1;labelBackgroundColor=none;" vertex="1" parent="1">
          <mxGeometry x="-310" y="810" width="120" height="60" as="geometry" />
        </mxCell>
        <mxCell id="5nUwZJZVLRGrAxREaGjv-15" value="protol: VNC" style="whiteSpace=wrap;html=1;labelBackgroundColor=none;" vertex="1" parent="1">
          <mxGeometry x="60" y="800" width="120" height="60" as="geometry" />
        </mxCell>
        <mxCell id="5nUwZJZVLRGrAxREaGjv-17" value="common.proto" style="text;html=1;align=center;verticalAlign=middle;resizable=0;points=[];autosize=1;strokeColor=none;fillColor=none;" vertex="1" parent="1">
          <mxGeometry x="60" y="625" width="100" height="30" as="geometry" />
        </mxCell>
        <mxCell id="5nUwZJZVLRGrAxREaGjv-18" value="http/ws" style="text;html=1;align=center;verticalAlign=middle;resizable=0;points=[];autosize=1;strokeColor=none;fillColor=none;" vertex="1" parent="1">
          <mxGeometry x="-320" y="565" width="60" height="30" as="geometry" />
        </mxCell>
        <mxCell id="tSqiz03PZhfYDKqzlnPl-5" style="edgeStyle=orthogonalEdgeStyle;rounded=0;orthogonalLoop=1;jettySize=auto;html=1;entryX=1;entryY=0.5;entryDx=0;entryDy=0;" edge="1" parent="1" source="5nUwZJZVLRGrAxREaGjv-19" target="e-3DsLQ5n08EXnR5hzsG-6">
          <mxGeometry relative="1" as="geometry">
            <Array as="points">
              <mxPoint x="870" y="800" />
            </Array>
          </mxGeometry>
        </mxCell>
        <mxCell id="5nUwZJZVLRGrAxREaGjv-19" value="db: redis" style="whiteSpace=wrap;html=1;labelBackgroundColor=none;" vertex="1" parent="1">
          <mxGeometry x="810" y="680" width="120" height="60" as="geometry" />
        </mxCell>
        <mxCell id="tSqiz03PZhfYDKqzlnPl-3" style="edgeStyle=orthogonalEdgeStyle;rounded=0;orthogonalLoop=1;jettySize=auto;html=1;entryX=0.5;entryY=0;entryDx=0;entryDy=0;" edge="1" parent="1" source="5nUwZJZVLRGrAxREaGjv-21" target="vAkFynC4GO7A3RIAd4qJ-1">
          <mxGeometry relative="1" as="geometry" />
        </mxCell>
        <mxCell id="5nUwZJZVLRGrAxREaGjv-21" value="db: mysql" style="whiteSpace=wrap;html=1;labelBackgroundColor=none;" vertex="1" parent="1">
          <mxGeometry x="430" y="535" width="120" height="60" as="geometry" />
        </mxCell>
        <mxCell id="tSqiz03PZhfYDKqzlnPl-11" value="tool:&lt;br&gt;turboVNC/trigeVNC&lt;br&gt;server" style="rounded=0;whiteSpace=wrap;html=1;labelBackgroundColor=none;" vertex="1" parent="1">
          <mxGeometry y="1030" width="120" height="60" as="geometry" />
        </mxCell>
        <mxCell id="tSqiz03PZhfYDKqzlnPl-13" value="rpc" style="text;html=1;align=center;verticalAlign=middle;resizable=0;points=[];autosize=1;strokeColor=none;fillColor=none;" vertex="1" parent="1">
          <mxGeometry x="-373" y="920" width="40" height="30" as="geometry" />
        </mxCell>
        <mxCell id="tSqiz03PZhfYDKqzlnPl-16" value="eda submit&lt;br&gt;" style="text;html=1;align=center;verticalAlign=middle;resizable=0;points=[];autosize=1;strokeColor=none;fillColor=none;" vertex="1" parent="1">
          <mxGeometry x="-270" y="1045" width="80" height="30" as="geometry" />
        </mxCell>
        <mxCell id="tSqiz03PZhfYDKqzlnPl-20" value="master node：公网IP" style="text;html=1;align=center;verticalAlign=middle;resizable=0;points=[];autosize=1;strokeColor=none;fillColor=none;" vertex="1" parent="1">
          <mxGeometry x="-460" y="1110" width="140" height="30" as="geometry" />
        </mxCell>
        <mxCell id="tSqiz03PZhfYDKqzlnPl-22" value="..." style="rounded=0;whiteSpace=wrap;html=1;labelBackgroundColor=none;fillColor=#dae8fc;strokeColor=#6c8ebf;" vertex="1" parent="1">
          <mxGeometry x="630" y="920" width="210" height="220" as="geometry" />
        </mxCell>
        <mxCell id="tSqiz03PZhfYDKqzlnPl-23" value="work node" style="text;html=1;align=center;verticalAlign=middle;resizable=0;points=[];autosize=1;strokeColor=none;fillColor=none;" vertex="1" parent="1">
          <mxGeometry x="640" y="1100" width="80" height="30" as="geometry" />
        </mxCell>
        <mxCell id="tSqiz03PZhfYDKqzlnPl-27" value="..." style="rounded=0;whiteSpace=wrap;html=1;labelBackgroundColor=none;fillColor=#dae8fc;strokeColor=#6c8ebf;" vertex="1" parent="1">
          <mxGeometry x="900" y="920" width="210" height="220" as="geometry" />
        </mxCell>
        <mxCell id="tSqiz03PZhfYDKqzlnPl-28" value="work node" style="text;html=1;align=center;verticalAlign=middle;resizable=0;points=[];autosize=1;strokeColor=none;fillColor=none;" vertex="1" parent="1">
          <mxGeometry x="910" y="1100" width="80" height="30" as="geometry" />
        </mxCell>
        <mxCell id="tSqiz03PZhfYDKqzlnPl-29" value="VPC" style="text;html=1;align=center;verticalAlign=middle;resizable=0;points=[];autosize=1;strokeColor=none;fillColor=none;" vertex="1" parent="1">
          <mxGeometry x="-523" y="1150" width="50" height="30" as="geometry" />
        </mxCell>
        <mxCell id="tSqiz03PZhfYDKqzlnPl-30" value="..." style="text;html=1;align=center;verticalAlign=middle;resizable=0;points=[];autosize=1;strokeColor=none;fillColor=none;" vertex="1" parent="1">
          <mxGeometry x="1150" y="1020" width="30" height="30" as="geometry" />
        </mxCell>
        <mxCell id="_Qafb0wvTKI9EhjA2tlI-1" value="TKEX" style="text;html=1;align=center;verticalAlign=middle;resizable=0;points=[];autosize=1;strokeColor=none;fillColor=none;" vertex="1" parent="1">
          <mxGeometry x="-373" y="520" width="50" height="30" as="geometry" />
        </mxCell>
        <mxCell id="_Qafb0wvTKI9EhjA2tlI-2" value="CVM" style="text;html=1;align=center;verticalAlign=middle;resizable=0;points=[];autosize=1;strokeColor=none;fillColor=none;" vertex="1" parent="1">
          <mxGeometry x="-473" y="930" width="50" height="30" as="geometry" />
        </mxCell>
      </root>
    </mxGraphModel>
  </diagram>
</mxfile>
